<svg width="21" height="22" viewBox="0 0 21 22" fill="none" xmlns="http://www.w3.org/2000/svg">
<path fill-rule="evenodd" clip-rule="evenodd" d="M14.9138 20.4998H6.56594C3.49958 20.4998 1.14718 19.3922 1.81537 14.9346L2.5934 8.89339C3.0053 6.66913 4.42406 5.81787 5.66892 5.81787H15.8474C17.1106 5.81787 18.4469 6.7332 18.9229 8.89339L19.701 14.9346C20.2685 18.8888 17.9801 20.4998 14.9138 20.4998Z" stroke="#9E9E9E" stroke-width="1.5" stroke-linecap="round" stroke-linejoin="round"/>
<path d="M15.051 5.59824C15.051 3.21216 13.1167 1.27787 10.7306 1.27787V1.27787C9.58164 1.273 8.47803 1.72603 7.66384 2.53679C6.84965 3.34754 6.39196 4.44923 6.39197 5.59824H6.39197" stroke="#9E9E9E" stroke-width="1.5" stroke-linecap="round" stroke-linejoin="round"/>
<path d="M13.6964 10.1017H13.6506" stroke="#9E9E9E" stroke-width="1.5" stroke-linecap="round" stroke-linejoin="round"/>
<path d="M7.86568 10.1017H7.81991" stroke="#9E9E9E" stroke-width="1.5" stroke-linecap="round" stroke-linejoin="round"/>
</svg>
